# xmcd
#
# Track frame offsets: 
#        300
#        13397
#        29636
#        42252
#        53389
#        68121
#        81955
#        97223
#        110477
#        131627
#        143965
#        159521
#        173801
#        188006
#        198735
#
# Disc length: 2886 seconds
#
# Revision: 0
# Processed by: cddbd v1.5.2PL0 Copyright (c) Steve Scherf et al.
# Submitted via: ExactAudioCopyFreeDBPlugin 1.0
#
DISCID=da0b420f
DTITLE=Freundschaft bringt Frieden in unsere Zeit - Wie Fruende Zusamm
DTITLE=en gehn Vol. 3
DYEAR=1900
DGENRE=Alemán
TTITLE0=Wie Freunde zusammen gehn
TTITLE1=Selge Gewissheit
TTITLE2=Ich denk so gern
TTITLE3=Instrumental
TTITLE4=Denkt des guten das der Herr
TTITLE5=Oh einmal da gibst keinen
TTITLE6=Aus lebendgem Steinen
TTITLE7=Ruhe mit Jesu
TTITLE8=Drum halte aus
TTITLE9=Höre was Jesus dir heute
TTITLE10=Instrumental
TTITLE11=Oh komm doch heut
TTITLE12=Er gibt dir mehr Gnade
TTITLE13=Wo sind die Neun
TTITLE14=Doch ich weiss an welchen
EXTD=
EXTT0=
EXTT1=
EXTT2=
EXTT3=
EXTT4=
EXTT5=
EXTT6=
EXTT7=
EXTT8=
EXTT9=
EXTT10=
EXTT11=
EXTT12=
EXTT13=
EXTT14=
PLAYORDER=
